<svg width="91" height="29" viewBox="0 0 91 29" fill="none" xmlns="http://www.w3.org/2000/svg">
<path d="M5.54445 29C8.8059 29 10.7628 27.0905 10.7628 25.2606C10.7628 22.9534 8.47975 22.3169 8.47975 22.3169V22.1578C8.47975 22.1578 10.4366 21.6804 10.4366 20.1687C10.4366 18.6571 8.64283 16.9067 5.54445 16.9067C2.77223 16.9067 0.978433 18.6571 0.489217 20.7257L4.23988 21.203C4.56602 20.5665 4.89217 20.2483 5.70753 20.2483C6.19674 20.2483 6.52289 20.5665 6.52289 20.8052C6.52289 21.0439 6.19674 21.3621 5.70753 21.3621H4.40295V24.2263H5.70753C6.44135 24.2263 6.84903 24.6241 6.84903 24.9424C6.84903 25.2606 6.44135 25.6584 5.70753 25.6584C4.56602 25.6584 4.0768 25.1811 3.75066 24.3855L0 24.8628C0.652289 27.2497 2.44608 29 5.54445 29Z" fill="#231F20"/>
<path d="M20.2235 17.3841H13.5375L10.7653 28.5226H14.516L14.9237 26.7723H18.8374L19.2451 28.5226H22.9957L20.2235 17.3841ZM18.022 23.4307H15.739L16.3913 20.7257H17.3697L18.022 23.4307Z" fill="#231F20"/>
<path d="M32.617 20.7257V17.3841H23.8111V28.5226H27.5617V20.7257H32.617Z" fill="#231F20"/>
<path d="M39.6265 20.5665C40.1973 20.5665 40.768 21.1235 40.768 21.6804C40.768 22.2373 40.1973 22.7942 39.6265 22.7942H37.1805V20.5665H39.6265ZM33.4298 17.3841V28.5226H37.1805V25.9767H39.6265C42.6434 25.9767 44.5187 24.1468 44.5187 21.6804C44.5187 19.214 42.6434 17.3841 39.6265 17.3841H33.4298Z" fill="#231F20"/>
<path d="M56.5937 17.3841H52.68L51.2123 21.203H49.7447L48.277 17.3841H44.3633L47.1355 24.5446H49.9893L49.7447 25.1015C49.6468 25.3402 49.5 25.4993 49.0924 25.4993H47.4616V28.8409H49.0924C51.3754 28.8409 52.5984 27.6475 53.3322 25.8176L56.5937 17.3841Z" fill="#231F20"/>
<path d="M61.489 29C64.7505 29 66.7074 27.0905 66.7074 25.2606C66.7074 22.9534 64.4243 22.3169 64.4243 22.3169V22.1578C64.4243 22.1578 66.3812 21.6804 66.3812 20.1687C66.3812 18.6571 64.5874 16.9067 61.489 16.9067C58.7168 16.9067 56.923 18.6571 56.4338 20.7257L60.1845 21.203C60.5106 20.5665 60.8368 20.2483 61.6521 20.2483C62.1413 20.2483 62.4675 20.5665 62.4675 20.8052C62.4675 21.0439 62.1413 21.3621 61.6521 21.3621H60.3475V24.2263H61.6521C62.3859 24.2263 62.7936 24.6241 62.7936 24.9424C62.7936 25.2606 62.3859 25.6584 61.6521 25.6584C60.5106 25.6584 60.0214 25.1811 59.6952 24.3855L55.9446 24.8628C56.5969 27.2497 58.3907 29 61.489 29Z" fill="#231F20"/>
<path d="M74.122 20.8052C74.122 21.0439 73.959 21.203 73.7144 21.203H71.5944V17.3841H67.8438V28.5226H71.5944V24.5446H73.8774C74.122 24.5446 74.2851 24.7037 74.2851 24.9424V25.738C74.2851 27.4883 75.5081 28.6818 77.7096 28.6818H78.9327V25.3402H78.4435C78.1988 25.3402 78.0358 25.1811 78.0358 24.9424V24.3855C78.0358 23.1125 76.6497 22.7942 76.6497 22.7942V22.6351C76.6497 22.6351 77.8727 22.3169 77.8727 21.203V20.9643C77.8727 20.7257 78.0358 20.5665 78.2804 20.5665H78.7696V17.225H77.5466C75.3451 17.225 74.122 18.4184 74.122 20.1687V20.8052Z" fill="#231F20"/>
<path d="M87.2493 23.2716V28.5226H91V17.3841H87.0863L83.9879 22.6351H83.8248V17.3841H80.0742V28.5226H83.9879L87.1026 23.2716H87.2493Z" fill="#231F20"/>
<path d="M10.3143 0.477509L7.70516 3.50083L5.09601 0.477509H1.0192V11.6161H4.76986V5.25117H4.93293L7.70516 8.43361L10.4774 5.25117H10.6405V11.6161H14.3911V0.477509H10.3143Z" fill="#231F20"/>
<path d="M36.8913 6.36503V11.6161H40.6419V0.477509H36.7282L33.6298 5.72854H33.4667V0.477509H29.7161V11.6161H33.6298L36.7445 6.36503H36.8913Z" fill="#231F20"/>
<path fill-rule="evenodd" clip-rule="evenodd" d="M19.3648 5.96708C19.3648 7.43176 20.5817 8.61911 22.0827 8.61911C23.5837 8.61911 24.8006 7.43176 24.8006 5.96708C24.8006 4.5024 23.5837 3.31504 22.0827 3.31504C20.5817 3.31504 19.3648 4.5024 19.3648 5.96708ZM22.0827 0C18.7054 0 15.9675 2.67155 15.9675 5.96708C15.9675 9.26261 18.7054 11.9342 22.0827 11.9342C25.46 11.9342 28.1979 9.26261 28.1979 5.96708C28.1979 2.67155 25.46 0 22.0827 0Z" fill="#231F20"/>
</svg>