<svg width="32" height="32" viewBox="0 0 32 32" fill="none" xmlns="http://www.w3.org/2000/svg">
<rect width="32" height="32" rx="3" fill="#047AEF"/>
<path d="M12.3767 5.87109L10.3995 8.33204L8.42226 5.87109H5.33282V14.9378H8.1751V9.75681H8.29868L10.3995 12.3473L12.5003 9.75681H12.6239V14.9378H15.4662V5.87109H12.3767Z" fill="white"/>
<path d="M26.6682 23.5795L24.2072 21.6023L26.6682 19.6251L26.6682 16.5356L17.6015 16.5356L17.6015 19.3779L22.7824 19.3779L22.7824 19.5015L20.192 21.6023L22.7824 23.7031L22.7824 23.8267L17.6015 23.8267L17.6015 26.669L26.6682 26.669L26.6682 23.5795Z" fill="white"/>
<path fill-rule="evenodd" clip-rule="evenodd" d="M8.14758 21.6023C8.14758 22.846 9.15577 23.8542 10.3994 23.8542C11.6431 23.8542 12.6513 22.846 12.6513 21.6023C12.6513 20.3586 11.6431 19.3505 10.3994 19.3505C9.15577 19.3505 8.14758 20.3586 8.14758 21.6023ZM10.3994 16.5356C7.60119 16.5356 5.33276 18.8041 5.33276 21.6023C5.33276 24.4006 7.60119 26.669 10.3994 26.669C13.1977 26.669 15.4661 24.4006 15.4661 21.6023C15.4661 18.8041 13.1977 16.5356 10.3994 16.5356Z" fill="#33A9FF"/>
<path fill-rule="evenodd" clip-rule="evenodd" d="M23.9995 8.53727H20.2662V12.2706H23.9995V8.53727ZM17.5995 5.87061V14.9373H26.6662V5.87061H17.5995Z" fill="#33A9FF"/>
</svg>
