<svg width="22" height="22" viewBox="0 0 22 22" fill="none" xmlns="http://www.w3.org/2000/svg">
<path fill-rule="evenodd" clip-rule="evenodd" d="M12.5431 0C17.766 0 22 4.25329 22 9.5C22 10.9611 21.6716 12.3452 21.085 13.5819L21.9505 17.4469C22.1912 18.5221 21.5164 19.1964 20.4445 18.9533L16.6036 18.0822C15.6562 18.5353 14.622 18.8348 13.5328 18.9486C12.1667 20.7936 9.97312 21.9899 7.5 21.9899C6.23243 21.9899 5.03831 21.6756 3.99139 21.1208L1.44132 21.9099C0.383408 22.2372 -0.213175 21.645 0.109464 20.585L0.886346 18.0325C0.320779 16.9788 0 15.7743 0 14.4949C0 11.9761 1.24341 9.74741 3.15031 8.38849C3.6982 3.66552 7.69455 0 12.5431 0ZM16.3697 15.9789L19.7559 16.7599L18.9914 13.346L19.2876 12.7215C19.7604 11.7248 20.009 10.6321 20.009 9.5C20.009 5.35786 16.6664 2 12.543 2C9.18308 2 6.34152 4.22964 5.40454 7.29642C6.06953 7.10345 6.77263 7 7.49991 7C11.642 7 14.9999 10.3556 14.9999 14.4949C14.9999 15.2591 14.8855 15.9965 14.6728 16.691C15.0412 16.5811 16.3697 15.9789 16.3697 15.9789ZM3.0427 17.8278L2.52983 19.4859L4.19015 18.9726L4.93171 19.3652C5.71575 19.7803 6.58986 20 7.5 20C10.5355 20 13 17.5396 13 14.5C13 11.4604 10.5355 9 7.5 9C4.46449 9 2 11.4604 2 14.5C2 15.4219 2.22545 16.3066 2.65061 17.098L3.0427 17.8278Z" fill="#231F20"/>
</svg>
