<svg width="20" height="18" viewBox="0 0 20 18" fill="none" xmlns="http://www.w3.org/2000/svg">
<path fill-rule="evenodd" clip-rule="evenodd" d="M19 16.0016C19 17.1053 18.1074 18 17.0049 18H2.99509C1.89323 18 1 17.1029 1 16.0016V6C0.447109 6 0 5.54902 0 4.99573V1.99791C0 0.894496 0.898212 0 2.00001 0H18C19.1046 0 20 0.898261 20 1.99791V4.99573C20 5.55037 19.5542 6 19.0014 6L19 16.0016ZM3 6V16H17V6H3ZM2 2V4H18V2H2ZM6 9C6 8.44771 6.44726 8 6.99703 8H13.003C13.5536 8 14 8.44386 14 9C14 9.55229 13.5527 10 13.003 10H6.99703C6.44639 10 6 9.55614 6 9Z" fill="#231F20"/>
</svg>
