<svg width="22" height="18" viewBox="0 0 22 18" fill="none" xmlns="http://www.w3.org/2000/svg">
<path fill-rule="evenodd" clip-rule="evenodd" d="M14 4V2.99896C14 2.44725 14.4439 2 15 2C15.5523 2 16 2.44913 16 2.99896V4H17C17.4226 4 17.7996 4.26568 17.9418 4.66369L19.4903 9H20.5014C21.0529 9 21.5 9.44853 21.5 10.0029V14.9971C21.5 15.551 21.0517 16 20.5013 16H19.3293C18.9175 17.1652 17.8062 18 16.5 18C15.1938 18 14.0825 17.1652 13.6707 16H8.32929C7.91746 17.1652 6.80622 18 5.5 18C4.19378 18 3.08254 17.1652 2.67071 16H1.49875C0.947154 16 0.5 15.5554 0.5 14.9991V1.00087C0.5 0.448106 0.950814 0 1.50043 0H10.9996C11.5521 0 12.0001 0.446311 12.0001 0.997545L12.0006 4H14ZM12.0009 6L12.0013 9H17.3668L16.2958 6H12.0009ZM16.5 12C17.8062 12 18.9175 12.8348 19.3293 14H19.5V11H10.9987C10.4471 11 10 10.5537 10 10.0025V2H2.5V14H2.67071C3.08254 12.8348 4.19378 12 5.5 12C6.80622 12 7.91746 12.8348 8.32929 14H13.6707C14.0825 12.8348 15.1938 12 16.5 12ZM17.5 15C17.5 14.4477 17.0523 14 16.5 14C15.9477 14 15.5 14.4477 15.5 15C15.5 15.5523 15.9477 16 16.5 16C17.0523 16 17.5 15.5523 17.5 15ZM6.5 15C6.5 14.4477 6.05228 14 5.5 14C4.94772 14 4.5 14.4477 4.5 15C4.5 15.5523 4.94772 16 5.5 16C6.05228 16 6.5 15.5523 6.5 15Z" fill="#231F20"/>
</svg>
